<svg preserveAspectRatio="none" width="100%" height="100%" overflow="visible" style="display: block;" viewBox="0 0 54.5752 56" fill="none" xmlns="http://www.w3.org/2000/svg">
<g id="Ellipse">
<mask id="path-1-inside-1_184_63" fill="white">
<path d="M26.5752 0C31.7316 6.14897e-08 36.7879 1.4239 41.1866 4.1147C45.5852 6.8055 49.1555 10.6587 51.5036 15.2495C53.8517 19.8402 54.8865 24.9902 54.4939 30.1317C54.1014 35.2731 52.2967 40.2063 49.2788 44.3874C46.2609 48.5684 42.1471 51.8349 37.3909 53.8267C32.6347 55.8185 27.4209 56.4583 22.3242 55.6754C17.2276 54.8926 12.4461 52.7175 8.50691 49.3901C4.56775 46.0627 1.62392 41.7121 2.48323e-08 36.8181L2.80541 35.8872C4.2579 40.2646 6.89096 44.1559 10.4143 47.1321C13.9376 50.1082 18.2143 52.0537 22.773 52.7539C27.3316 53.4541 31.995 52.8819 36.2491 51.1003C40.5033 49.3188 44.1828 46.3971 46.8821 42.6575C49.5814 38.9178 51.1956 34.5054 51.5467 29.9066C51.8978 25.3079 50.9722 20.7016 48.872 16.5955C46.7718 12.4893 43.5784 9.0429 39.6441 6.63615C35.7098 4.2294 31.1873 2.95582 26.5752 2.95582L26.5752 0Z"/>
</mask>
<g clip-path="url(#paint0_angular_184_63_clip_path)" data-figma-skip-parse="true" mask="url(#path-1-inside-1_184_63)"><g transform="matrix(4.26178e-10 -0.0285 0.0285 4.26178e-10 26.5752 28)"><foreignObject x="-1084.8" y="-1084.8" width="2169.59" height="2169.59"><div xmlns="http://www.w3.org/1999/xhtml" style="background:conic-gradient(from 90deg,rgba(26, 186, 185, 1) 0deg,rgba(26, 187, 185, 1) 0.246595deg,rgba(108, 99, 255, 1) 180.058deg,rgba(26, 186, 185, 1) 360deg);height:100%;width:100%;opacity:1"></div></foreignObject></g></g><path d="M26.5752 0V-2.91667H23.6585V-3.47809e-08L26.5752 0ZM41.1866 4.1147L42.7086 1.62664L41.1866 4.1147ZM51.5036 15.2495L54.1003 13.9213L51.5036 15.2495ZM54.4939 30.1317L57.4021 30.3537L54.4939 30.1317ZM49.2788 44.3874L51.6438 46.0944L49.2788 44.3874ZM22.3242 55.6754L21.8814 58.5583L22.3242 55.6754ZM0 36.8181L-0.918552 34.0498L-3.6868 34.9684L-2.76825 37.7366L0 36.8181ZM2.80541 35.8872L5.57366 34.9687L4.65511 32.2004L1.88686 33.119L2.80541 35.8872ZM10.4143 47.1321L8.53217 49.3602L10.4143 47.1321ZM22.773 52.7539L22.3302 55.6367L22.773 52.7539ZM36.2491 51.1003L37.3758 53.7906L36.2491 51.1003ZM46.8821 42.6575L49.247 44.3645L46.8821 42.6575ZM51.5467 29.9067L54.4549 30.1287V30.1287L51.5467 29.9067ZM48.872 16.5955L51.4687 15.2673L48.872 16.5955ZM39.6441 6.63615L41.1661 4.1481L39.6441 6.63615ZM26.5752 2.95582H23.6585V5.87249H26.5752V2.95582ZM26.5752 0V2.91667C31.1945 2.91667 35.7241 4.19224 39.6646 6.60275L41.1866 4.1147L42.7086 1.62664C37.8517 -1.34445 32.2687 -2.91667 26.5752 -2.91667V0ZM41.1866 4.1147L39.6646 6.60275C43.605 9.01326 46.8033 12.4651 48.9069 16.5776L51.5036 15.2495L54.1003 13.9213C51.5076 8.85231 47.5655 4.59774 42.7086 1.62664L41.1866 4.1147ZM51.5036 15.2495L48.9069 16.5776C51.0104 20.6902 51.9374 25.3037 51.5857 29.9096L54.4939 30.1317L57.4021 30.3537C57.8356 24.6767 56.693 18.9902 54.1003 13.9213L51.5036 15.2495ZM54.4939 30.1317L51.5857 29.9096C51.2341 34.5155 49.6173 38.9349 46.9138 42.6804L49.2788 44.3874L51.6438 46.0944C54.976 41.4778 56.9687 36.0308 57.4021 30.3537L54.4939 30.1317ZM49.2788 44.3874L46.9138 42.6804C44.2103 46.4259 40.525 49.3521 36.2643 51.1365L37.3909 53.8267L38.5175 56.517C43.7692 54.3177 48.3115 50.711 51.6438 46.0944L49.2788 44.3874ZM37.3909 53.8267L36.2643 51.1365C32.0035 52.9208 27.3328 53.4939 22.767 52.7926L22.3242 55.6754L21.8814 58.5583C27.509 59.4227 33.2659 58.7163 38.5175 56.517L37.3909 53.8267ZM22.3242 55.6754L22.767 52.7926C18.2013 52.0913 13.9179 50.1428 10.389 47.162L8.50691 49.3901L6.62479 51.6182C10.9743 55.2923 16.2538 57.6939 21.8814 58.5583L22.3242 55.6754ZM8.50691 49.3901L10.389 47.162C6.86019 44.1812 4.22301 40.2838 2.76825 35.8995L0 36.8181L-2.76825 37.7366C-0.975169 43.1405 2.2753 47.9442 6.62479 51.6182L8.50691 49.3901ZM0 36.8181L0.918552 39.5863L3.72396 38.6555L2.80541 35.8872L1.88686 33.119L-0.918552 34.0498L0 36.8181ZM2.80541 35.8872L0.0371608 36.8058C1.65881 41.693 4.59852 46.0374 8.53217 49.3602L10.4143 47.1321L12.2964 44.9039C9.18341 42.2744 6.857 38.8363 5.57366 34.9687L2.80541 35.8872ZM10.4143 47.1321L8.53217 49.3602C12.4658 52.683 17.2406 54.855 22.3302 55.6367L22.773 52.7539L23.2158 49.871C19.1881 49.2523 15.4094 47.5335 12.2964 44.9039L10.4143 47.1321ZM22.773 52.7539L22.3302 55.6367C27.4197 56.4185 32.6262 55.7796 37.3758 53.7906L36.2491 51.1003L35.1225 48.4101C31.3638 49.9841 27.2435 50.4897 23.2158 49.871L22.773 52.7539ZM36.2491 51.1003L37.3758 53.7906C42.1253 51.8016 46.2334 48.5397 49.247 44.3645L46.8821 42.6575L44.5171 40.9504C42.1322 44.2546 38.8812 46.836 35.1225 48.4101L36.2491 51.1003ZM46.8821 42.6575L49.247 44.3645C52.2607 40.1893 54.0629 35.263 54.4549 30.1287L51.5467 29.9067L48.6385 29.6846C48.3283 33.7477 46.9021 37.6463 44.5171 40.9504L46.8821 42.6575ZM51.5467 29.9067L54.4549 30.1287C54.8469 24.9944 53.8135 19.8516 51.4687 15.2673L48.872 16.5955L46.2753 17.9236C48.1309 21.5516 48.9487 25.6215 48.6385 29.6846L51.5467 29.9067ZM48.872 16.5955L51.4687 15.2673C49.1239 10.6829 45.5587 6.83514 41.1661 4.1481L39.6441 6.63615L38.1221 9.1242C41.5982 11.2507 44.4197 14.2957 46.2753 17.9236L48.872 16.5955ZM39.6441 6.63615L41.1661 4.1481C36.7736 1.46106 31.7244 0.0391532 26.5752 0.0391531V2.95582V5.87249C30.6502 5.87249 34.646 6.99775 38.1221 9.1242L39.6441 6.63615ZM26.5752 2.95582H29.4919V3.47809e-08L26.5752 0L23.6585 -3.47809e-08V2.95582H26.5752Z" data-figma-gradient-fill="{&#34;type&#34;:&#34;GRADIENT_ANGULAR&#34;,&#34;stops&#34;:[{&#34;color&#34;:{&#34;r&#34;:0.10196078568696976,&#34;g&#34;:0.73333334922790527,&#34;b&#34;:0.72549021244049072,&#34;a&#34;:1.0},&#34;position&#34;:0.00068498495966196060},{&#34;color&#34;:{&#34;r&#34;:0.42352941632270813,&#34;g&#34;:0.38823530077934265,&#34;b&#34;:1.0,&#34;a&#34;:1.0},&#34;position&#34;:0.50015974044799805}],&#34;stopsVar&#34;:[{&#34;color&#34;:{&#34;r&#34;:0.10196078568696976,&#34;g&#34;:0.73333334922790527,&#34;b&#34;:0.72549021244049072,&#34;a&#34;:1.0},&#34;position&#34;:0.00068498495966196060},{&#34;color&#34;:{&#34;r&#34;:0.42352941632270813,&#34;g&#34;:0.38823530077934265,&#34;b&#34;:1.0,&#34;a&#34;:1.0},&#34;position&#34;:0.50015974044799805}],&#34;transform&#34;:{&#34;m00&#34;:8.5235609503797605e-07,&#34;m01&#34;:56.999996185302734,&#34;m02&#34;:-1.9247996807098389,&#34;m10&#34;:-56.999996185302734,&#34;m11&#34;:8.5235615188139491e-07,&#34;m12&#34;:56.499996185302734},&#34;opacity&#34;:1.0,&#34;blendMode&#34;:&#34;NORMAL&#34;,&#34;visible&#34;:true}" mask="url(#path-1-inside-1_184_63)"/>
</g>
<defs>
<clipPath id="paint0_angular_184_63_clip_path"><path d="M26.5752 0V-2.91667H23.6585V-3.47809e-08L26.5752 0ZM41.1866 4.1147L42.7086 1.62664L41.1866 4.1147ZM51.5036 15.2495L54.1003 13.9213L51.5036 15.2495ZM54.4939 30.1317L57.4021 30.3537L54.4939 30.1317ZM49.2788 44.3874L51.6438 46.0944L49.2788 44.3874ZM22.3242 55.6754L21.8814 58.5583L22.3242 55.6754ZM0 36.8181L-0.918552 34.0498L-3.6868 34.9684L-2.76825 37.7366L0 36.8181ZM2.80541 35.8872L5.57366 34.9687L4.65511 32.2004L1.88686 33.119L2.80541 35.8872ZM10.4143 47.1321L8.53217 49.3602L10.4143 47.1321ZM22.773 52.7539L22.3302 55.6367L22.773 52.7539ZM36.2491 51.1003L37.3758 53.7906L36.2491 51.1003ZM46.8821 42.6575L49.247 44.3645L46.8821 42.6575ZM51.5467 29.9067L54.4549 30.1287V30.1287L51.5467 29.9067ZM48.872 16.5955L51.4687 15.2673L48.872 16.5955ZM39.6441 6.63615L41.1661 4.1481L39.6441 6.63615ZM26.5752 2.95582H23.6585V5.87249H26.5752V2.95582ZM26.5752 0V2.91667C31.1945 2.91667 35.7241 4.19224 39.6646 6.60275L41.1866 4.1147L42.7086 1.62664C37.8517 -1.34445 32.2687 -2.91667 26.5752 -2.91667V0ZM41.1866 4.1147L39.6646 6.60275C43.605 9.01326 46.8033 12.4651 48.9069 16.5776L51.5036 15.2495L54.1003 13.9213C51.5076 8.85231 47.5655 4.59774 42.7086 1.62664L41.1866 4.1147ZM51.5036 15.2495L48.9069 16.5776C51.0104 20.6902 51.9374 25.3037 51.5857 29.9096L54.4939 30.1317L57.4021 30.3537C57.8356 24.6767 56.693 18.9902 54.1003 13.9213L51.5036 15.2495ZM54.4939 30.1317L51.5857 29.9096C51.2341 34.5155 49.6173 38.9349 46.9138 42.6804L49.2788 44.3874L51.6438 46.0944C54.976 41.4778 56.9687 36.0308 57.4021 30.3537L54.4939 30.1317ZM49.2788 44.3874L46.9138 42.6804C44.2103 46.4259 40.525 49.3521 36.2643 51.1365L37.3909 53.8267L38.5175 56.517C43.7692 54.3177 48.3115 50.711 51.6438 46.0944L49.2788 44.3874ZM37.3909 53.8267L36.2643 51.1365C32.0035 52.9208 27.3328 53.4939 22.767 52.7926L22.3242 55.6754L21.8814 58.5583C27.509 59.4227 33.2659 58.7163 38.5175 56.517L37.3909 53.8267ZM22.3242 55.6754L22.767 52.7926C18.2013 52.0913 13.9179 50.1428 10.389 47.162L8.50691 49.3901L6.62479 51.6182C10.9743 55.2923 16.2538 57.6939 21.8814 58.5583L22.3242 55.6754ZM8.50691 49.3901L10.389 47.162C6.86019 44.1812 4.22301 40.2838 2.76825 35.8995L0 36.8181L-2.76825 37.7366C-0.975169 43.1405 2.2753 47.9442 6.62479 51.6182L8.50691 49.3901ZM0 36.8181L0.918552 39.5863L3.72396 38.6555L2.80541 35.8872L1.88686 33.119L-0.918552 34.0498L0 36.8181ZM2.80541 35.8872L0.0371608 36.8058C1.65881 41.693 4.59852 46.0374 8.53217 49.3602L10.4143 47.1321L12.2964 44.9039C9.18341 42.2744 6.857 38.8363 5.57366 34.9687L2.80541 35.8872ZM10.4143 47.1321L8.53217 49.3602C12.4658 52.683 17.2406 54.855 22.3302 55.6367L22.773 52.7539L23.2158 49.871C19.1881 49.2523 15.4094 47.5335 12.2964 44.9039L10.4143 47.1321ZM22.773 52.7539L22.3302 55.6367C27.4197 56.4185 32.6262 55.7796 37.3758 53.7906L36.2491 51.1003L35.1225 48.4101C31.3638 49.9841 27.2435 50.4897 23.2158 49.871L22.773 52.7539ZM36.2491 51.1003L37.3758 53.7906C42.1253 51.8016 46.2334 48.5397 49.247 44.3645L46.8821 42.6575L44.5171 40.9504C42.1322 44.2546 38.8812 46.836 35.1225 48.4101L36.2491 51.1003ZM46.8821 42.6575L49.247 44.3645C52.2607 40.1893 54.0629 35.263 54.4549 30.1287L51.5467 29.9067L48.6385 29.6846C48.3283 33.7477 46.9021 37.6463 44.5171 40.9504L46.8821 42.6575ZM51.5467 29.9067L54.4549 30.1287C54.8469 24.9944 53.8135 19.8516 51.4687 15.2673L48.872 16.5955L46.2753 17.9236C48.1309 21.5516 48.9487 25.6215 48.6385 29.6846L51.5467 29.9067ZM48.872 16.5955L51.4687 15.2673C49.1239 10.6829 45.5587 6.83514 41.1661 4.1481L39.6441 6.63615L38.1221 9.1242C41.5982 11.2507 44.4197 14.2957 46.2753 17.9236L48.872 16.5955ZM39.6441 6.63615L41.1661 4.1481C36.7736 1.46106 31.7244 0.0391532 26.5752 0.0391531V2.95582V5.87249C30.6502 5.87249 34.646 6.99775 38.1221 9.1242L39.6441 6.63615ZM26.5752 2.95582H29.4919V3.47809e-08L26.5752 0L23.6585 -3.47809e-08V2.95582H26.5752Z"/></clipPath></defs>
</svg>
