<svg preserveAspectRatio="none" width="100%" height="100%" overflow="visible" style="display: block;" viewBox="0 0 18 18" fill="none" xmlns="http://www.w3.org/2000/svg">
<g id="Group 3">
<path id="Ellipse 3" d="M9 0C7.8181 0 6.64778 0.232792 5.55585 0.685084C4.46392 1.13738 3.47177 1.80031 2.63604 2.63604C1.80031 3.47177 1.13738 4.46392 0.685084 5.55585C0.232792 6.64778 -5.16623e-08 7.8181 0 9C5.16624e-08 10.1819 0.232792 11.3522 0.685084 12.4442C1.13738 13.5361 1.80031 14.5282 2.63604 15.364C3.47177 16.1997 4.46392 16.8626 5.55585 17.3149C6.64778 17.7672 7.8181 18 9 18L9 9V0Z" fill="#1464BC"/>
<path id="Ellipse 4" d="M9 0C10.1819 0 11.3522 0.232792 12.4442 0.685084C13.5361 1.13738 14.5282 1.80031 15.364 2.63604C16.1997 3.47177 16.8626 4.46392 17.3149 5.55585C17.7672 6.64778 18 7.8181 18 9C18 10.1819 17.7672 11.3522 17.3149 12.4442C16.8626 13.5361 16.1997 14.5282 15.364 15.364C14.5282 16.1997 13.5361 16.8626 12.4442 17.3149C11.3522 17.7672 10.1819 18 9 18L9 9V0Z" fill="#F6C406"/>
</g>
</svg>



