<svg preserveAspectRatio="none" width="100%" height="100%" overflow="visible" style="display: block;" viewBox="0 0 24 24" fill="none" xmlns="http://www.w3.org/2000/svg">
<g id="camera">
<path id="Vector" d="M6.75995 22H17.24C20 22 21.1 20.31 21.23 18.25L21.75 9.99C21.89 7.83 20.17 6 18 6C17.39 6 16.83 5.65 16.55 5.11L15.83 3.66C15.37 2.75 14.17 2 13.15 2H10.86C9.82995 2 8.62995 2.75 8.16995 3.66L7.44995 5.11C7.16995 5.65 6.60995 6 5.99995 6C3.82995 6 2.10995 7.83 2.24995 9.99L2.76995 18.25C2.88995 20.31 3.99995 22 6.75995 22Z" stroke="#9D97FF" stroke-width="1.5" stroke-linecap="round" stroke-linejoin="round"/>
<path id="Vector_2" d="M10.5 8H13.5" stroke="#9D97FF" stroke-width="1.5" stroke-linecap="round" stroke-linejoin="round"/>
<path id="Vector_3" d="M12 18C13.79 18 15.25 16.54 15.25 14.75C15.25 12.96 13.79 11.5 12 11.5C10.21 11.5 8.75 12.96 8.75 14.75C8.75 16.54 10.21 18 12 18Z" stroke="#9D97FF" stroke-width="1.5" stroke-linecap="round" stroke-linejoin="round"/>
<path id="Vector_4" opacity="0" d="M23.5 0.5V23.5H0.5V0.5H23.5Z" stroke="#9D97FF"/>
</g>
</svg>


