<svg preserveAspectRatio="none" width="100%" height="100%" overflow="visible" style="display: block;" viewBox="0 0 20 20" fill="none" xmlns="http://www.w3.org/2000/svg">
<g id="close-square">
<g id="Vector">
<path d="M11.9162 7.20038C12.1579 6.95871 12.5583 6.95871 12.8 7.20038C13.0414 7.44204 13.0415 7.84158 12.8 8.08319L8.08319 12.8C7.96656 12.9249 7.80005 12.9835 7.64178 12.9836C7.48353 12.9836 7.32535 12.9249 7.20038 12.8C6.95871 12.5583 6.95871 12.1579 7.20038 11.9162L11.9162 7.20038Z" fill="#9D97FF"/>
<path d="M11.9162 7.20038C12.1579 6.95871 12.5583 6.95871 12.8 7.20038C13.0414 7.44204 13.0415 7.84158 12.8 8.08319L8.08319 12.8C7.96656 12.9249 7.80005 12.9835 7.64178 12.9836C7.48353 12.9836 7.32535 12.9249 7.20038 12.8C6.95871 12.5583 6.95871 12.1579 7.20038 11.9162L11.9162 7.20038Z" stroke="black"/>
</g>
<g id="Vector_2">
<path d="M7.20038 7.20038C7.44205 6.95871 7.84152 6.95871 8.08319 7.20038L12.8 11.9162C13.0417 12.1579 13.0417 12.5583 12.8 12.8C12.6751 12.9249 12.5168 12.9835 12.3586 12.9836C12.2002 12.9836 12.0412 12.925 11.9162 12.8L7.20038 8.08319C6.95871 7.84152 6.95871 7.44205 7.20038 7.20038Z" fill="#9D97FF"/>
<path d="M7.20038 7.20038C7.44205 6.95871 7.84152 6.95871 8.08319 7.20038L12.8 11.9162C13.0417 12.1579 13.0417 12.5583 12.8 12.8C12.6751 12.9249 12.5168 12.9835 12.3586 12.9836C12.2002 12.9836 12.0412 12.925 11.9162 12.8L7.20038 8.08319C6.95871 7.84152 6.95871 7.44205 7.20038 7.20038Z" stroke="black"/>
</g>
<g id="Vector_3">
<path d="M12.4997 1.04167C17.0246 1.04167 18.9586 2.97491 18.9587 7.49967V12.4997C18.9587 17.0247 17.0247 18.9587 12.4997 18.9587H7.49967C2.97491 18.9586 1.04167 17.0246 1.04167 12.4997V7.49967C1.04176 2.97502 2.97502 1.04176 7.49967 1.04167H12.4997ZM7.49967 2.29167C3.65836 2.29174 2.29174 3.65836 2.29167 7.49967V12.4997C2.29167 16.3412 3.65826 17.7086 7.49967 17.7087H12.4997C16.3413 17.7087 17.7087 16.3413 17.7087 12.4997V7.49967C17.7086 3.65826 16.3412 2.29167 12.4997 2.29167H7.49967Z" fill="#9D97FF"/>
<path d="M12.4997 1.04167C17.0246 1.04167 18.9586 2.97491 18.9587 7.49967V12.4997C18.9587 17.0247 17.0247 18.9587 12.4997 18.9587H7.49967C2.97491 18.9586 1.04167 17.0246 1.04167 12.4997V7.49967C1.04176 2.97502 2.97502 1.04176 7.49967 1.04167H12.4997ZM7.49967 2.29167C3.65836 2.29174 2.29174 3.65836 2.29167 7.49967V12.4997C2.29167 16.3412 3.65826 17.7086 7.49967 17.7087H12.4997C16.3413 17.7087 17.7087 16.3413 17.7087 12.4997V7.49967C17.7086 3.65826 16.3412 2.29167 12.4997 2.29167H7.49967Z" stroke="black"/>
</g>
<g id="Vector_4" opacity="0">
<path d="M20 0V20H0V0H20Z" fill="#9D97FF"/>
<path d="M20 0V20H0V0H20Z" stroke="#121126"/>
</g>
</g>
</svg>

