<svg preserveAspectRatio="none" width="100%" height="100%" overflow="visible" style="display: block;" viewBox="0 0 27 27" fill="none" xmlns="http://www.w3.org/2000/svg">
<g id="eye">
<path id="Vector" d="M13.4999 18.3713C10.8112 18.3713 8.62866 16.1888 8.62866 13.5C8.62866 10.8113 10.8112 8.62877 13.4999 8.62877C16.1887 8.62877 18.3712 10.8113 18.3712 13.5C18.3712 16.1888 16.1887 18.3713 13.4999 18.3713ZM13.4999 10.3163C11.7449 10.3163 10.3162 11.745 10.3162 13.5C10.3162 15.255 11.7449 16.6838 13.4999 16.6838C15.2549 16.6838 16.6837 15.255 16.6837 13.5C16.6837 11.745 15.2549 10.3163 13.4999 10.3163Z" fill="#9D97FF"/>
<path id="Vector_2" d="M13.5001 23.6475C9.27009 23.6475 5.27634 21.1725 2.53134 16.875C1.33884 15.0188 1.33884 11.9925 2.53134 10.125C5.28759 5.82751 9.28134 3.35251 13.5001 3.35251C17.7188 3.35251 21.7126 5.82751 24.4576 10.125C25.6501 11.9813 25.6501 15.0075 24.4576 16.875C21.7126 21.1725 17.7188 23.6475 13.5001 23.6475ZM13.5001 5.04001C9.86634 5.04001 6.39009 7.22251 3.96009 11.0363C3.11634 12.3525 3.11634 14.6475 3.96009 15.9638C6.39009 19.7775 9.86634 21.96 13.5001 21.96C17.1338 21.96 20.6101 19.7775 23.0401 15.9638C23.8838 14.6475 23.8838 12.3525 23.0401 11.0363C20.6101 7.22251 17.1338 5.04001 13.5001 5.04001Z" fill="#9D97FF"/>
<path id="Vector_3" opacity="0" d="M27 0H0V27H27V0Z" fill="#9D97FF"/>
</g>
</svg>


