<svg preserveAspectRatio="none" width="100%" height="100%" overflow="visible" style="display: block;" viewBox="0 0 36 36" fill="none" xmlns="http://www.w3.org/2000/svg">
<g id="gallery">
<path id="Vector" d="M3.87 28.515L3.84 28.545C3.435 27.66 3.18 26.655 3.075 25.545C3.18 26.64 3.465 27.63 3.87 28.515Z" fill="#F0F0FF"/>
<path id="Vector_2" d="M13.5 15.57C15.4717 15.57 17.07 13.9717 17.07 12C17.07 10.0283 15.4717 8.43 13.5 8.43C11.5283 8.43 9.93 10.0283 9.93 12C9.93 13.9717 11.5283 15.57 13.5 15.57Z" fill="#F0F0FF"/>
<path id="Vector_3" d="M24.285 3H11.715C6.255 3 3 6.255 3 11.715V24.285C3 25.92 3.285 27.345 3.84 28.545C5.13 31.395 7.89 33 11.715 33H24.285C29.745 33 33 29.745 33 24.285V20.85V11.715C33 6.255 29.745 3 24.285 3ZM30.555 18.75C29.385 17.745 27.495 17.745 26.325 18.75L20.085 24.105C18.915 25.11 17.025 25.11 15.855 24.105L15.345 23.685C14.28 22.755 12.585 22.665 11.385 23.475L5.775 27.24C5.445 26.4 5.25 25.425 5.25 24.285V11.715C5.25 7.485 7.485 5.25 11.715 5.25H24.285C28.515 5.25 30.75 7.485 30.75 11.715V18.915L30.555 18.75Z" fill="#F0F0FF"/>
<g id="Vector_4" opacity="0">
</g>
</g>
</svg>

