<svg preserveAspectRatio="none" width="100%" height="100%" overflow="visible" style="display: block;" viewBox="0 0 27 27" fill="none" xmlns="http://www.w3.org/2000/svg">
<g id="mask">
<path id="Vector" d="M20.9812 5.16375C19.0012 3.36375 16.3799 2.28375 13.4999 2.28375C7.31244 2.28375 2.28369 7.3125 2.28369 13.5C2.28369 19.6875 7.31244 24.7162 13.4999 24.7162C16.3799 24.7162 19.0012 23.6362 20.9812 21.8362C23.2762 19.8 24.7162 16.8075 24.7162 13.5C24.7162 10.1925 23.2762 7.2 20.9812 5.16375ZM13.4662 18.4387C13.4437 20.295 12.0599 20.745 10.7662 20.2275C8.09994 19.1587 6.22119 16.5487 6.22119 13.5C6.22119 10.4512 8.09994 7.84125 10.7662 6.76125C12.0599 6.24375 13.4437 6.705 13.4662 8.55V18.4387Z" fill="#9D97FF"/>
<path id="Vector_2" opacity="0" d="M27 0H0V27H27V0Z" fill="#9D97FF"/>
</g>
</svg>



