<svg preserveAspectRatio="none" width="100%" height="100%" overflow="visible" style="display: block;" viewBox="0 0 20 20" fill="none" xmlns="http://www.w3.org/2000/svg">
<g id="Vector">
<path d="M17.4528 3.85822V5.45311C17.6962 5.55085 17.9171 5.70759 18.0999 5.91197C18.4336 6.28666 18.6217 6.79345 18.6232 7.32223V17.899L16.3486 16.4271C16.244 16.3593 16.1253 16.3233 16.0044 16.3225H6.91727C6.55749 16.3239 6.20584 16.2025 5.90938 15.9746C5.62314 15.7535 5.40033 15.4444 5.26782 15.0847H4.46101L3.94053 15.4203C3.94554 15.5004 3.9613 15.5794 3.98732 15.6544C4.22154 16.2972 4.61881 16.8494 5.13014 17.2431C5.65614 17.6464 6.27947 17.8612 6.91727 17.8589H15.8172L18.9646 19.8973C19.0694 19.9646 19.188 20 19.3088 20C19.4296 20 19.5483 19.9646 19.653 19.8973C19.7584 19.83 19.846 19.7327 19.9069 19.6154C19.9678 19.4981 20 19.3649 20 19.2292V7.31908C20.0002 6.85498 19.9183 6.39542 19.7591 5.96685C19.5998 5.53828 19.3663 5.14921 19.072 4.82195C18.6307 4.32669 18.0667 3.99098 17.4528 3.85822Z" fill="#6C63FF"/>
<path d="M5.26782 15.0847H14.0796C14.9708 15.0839 15.8253 14.6875 16.4552 13.9825C17.0852 13.2775 17.4391 12.3217 17.4391 11.3251V3.75659C17.4391 2.76029 17.0851 1.80473 16.4551 1.10024C15.8251 0.395759 14.9706 0 14.0796 0H3.35954C2.46855 0 1.61405 0.395759 0.984023 1.10024C0.353997 1.80473 0 2.76029 0 3.75659V16.6273C0.00024442 16.7621 0.0321644 16.8945 0.0925736 17.0112C0.152983 17.128 0.239761 17.225 0.34421 17.2924C0.448678 17.3606 0.567464 17.3964 0.68842 17.3964C0.809376 17.3964 0.928161 17.3606 1.03263 17.2924L3.92675 15.4203L4.44723 15.0847H5.26782ZM1.39062 15.291V3.75659C1.3901 3.46539 1.44122 3.17688 1.54094 2.90787C1.64067 2.63887 1.78706 2.39475 1.97168 2.18936C2.15517 1.98265 2.37356 1.81873 2.61418 1.7072C2.85479 1.59567 3.11279 1.53864 3.37326 1.53956H14.0934C14.3538 1.53898 14.6117 1.59614 14.8523 1.70765C15.0929 1.81916 15.3113 1.98293 15.495 2.18936C15.6796 2.39475 15.826 2.63887 15.9257 2.90787C16.0254 3.17688 16.0765 3.46539 16.076 3.75659V11.3251C16.0769 11.6168 16.026 11.9057 15.9262 12.1753C15.8265 12.4449 15.6799 12.6897 15.495 12.8955C15.1233 13.3113 14.6191 13.5449 14.0934 13.5451H4.27647C4.15485 13.5444 4.0352 13.5795 3.9295 13.6468L1.39062 15.291Z" fill="#6C63FF"/>
</g>
</svg>

