<svg preserveAspectRatio="none" width="100%" height="100%" overflow="visible" style="display: block;" viewBox="0 0 24 24" fill="none" xmlns="http://www.w3.org/2000/svg">
<g id="tag">
<path id="Vector" d="M4.16991 15.3L8.69991 19.83C10.5599 21.69 13.5799 21.69 15.4499 19.83L19.8399 15.44C21.6999 13.58 21.6999 10.56 19.8399 8.69005L15.2999 4.17005C14.3499 3.22005 13.0399 2.71005 11.6999 2.78005L6.69991 3.02005C4.69991 3.11005 3.10991 4.70005 3.00991 6.69005L2.76991 11.69C2.70991 13.04 3.21991 14.35 4.16991 15.3Z" stroke="#9D97FF" stroke-width="1.5" stroke-linecap="round" stroke-linejoin="round"/>
<path id="Vector_2" d="M9.50008 12.0001C10.8808 12.0001 12.0001 10.8808 12.0001 9.50006C12.0001 8.11935 10.8808 7.00006 9.50008 7.00006C8.11937 7.00006 7.00008 8.11935 7.00008 9.50006C7.00008 10.8808 8.11937 12.0001 9.50008 12.0001Z" stroke="#9D97FF" stroke-width="1.5" stroke-linecap="round"/>
<g id="Vector_3" opacity="0">
</g>
</g>
</svg>

