<svg preserveAspectRatio="none" width="100%" height="100%" overflow="visible" style="display: block;" viewBox="0 0 18 18" fill="none" xmlns="http://www.w3.org/2000/svg">
<g id="volume-high">
<path id="Vector" d="M9.41241 15.4425C8.81991 15.4425 8.16741 15.2325 7.51491 14.82L5.32491 13.4475C5.17491 13.3575 5.00241 13.305 4.82991 13.305H3.74991C1.93491 13.305 0.937408 12.3075 0.937408 10.4925V7.4925C0.937408 5.6775 1.93491 4.68 3.74991 4.68H4.82241C4.99491 4.68 5.16741 4.6275 5.31741 4.5375L7.50741 3.165C8.60241 2.4825 9.66741 2.355 10.5074 2.82C11.3474 3.285 11.8049 4.2525 11.8049 5.55V12.4275C11.8049 13.7175 11.3399 14.6925 10.5074 15.1575C10.1774 15.3525 9.80241 15.4425 9.41241 15.4425ZM3.74991 5.8125C2.56491 5.8125 2.06241 6.315 2.06241 7.5V10.5C2.06241 11.685 2.56491 12.1875 3.74991 12.1875H4.82241C5.21241 12.1875 5.58741 12.2925 5.91741 12.5025L8.10741 13.875C8.82741 14.325 9.50991 14.445 9.96741 14.19C10.4249 13.935 10.6874 13.2975 10.6874 12.45V5.5575C10.6874 4.7025 10.4249 4.065 9.96741 3.8175C9.50991 3.5625 8.82741 3.675 8.10741 4.1325L5.90991 5.4975C5.58741 5.7075 5.20491 5.8125 4.82241 5.8125H3.74991Z" fill="#9D97FF"/>
<path id="Vector_2" d="M13.4999 12.5625C13.3799 12.5625 13.2674 12.525 13.1624 12.45C12.9149 12.2625 12.8624 11.91 13.0499 11.6625C14.2274 10.095 14.2274 7.90501 13.0499 6.33751C12.8624 6.09001 12.9149 5.73751 13.1624 5.55001C13.4099 5.36251 13.7624 5.41501 13.9499 5.66251C15.4199 7.62751 15.4199 10.3725 13.9499 12.3375C13.8374 12.4875 13.6724 12.5625 13.4999 12.5625Z" fill="#9D97FF"/>
<path id="Vector_3" d="M14.8727 14.4375C14.7527 14.4375 14.6402 14.4 14.5352 14.325C14.2877 14.1375 14.2352 13.785 14.4227 13.5375C16.4252 10.8675 16.4252 7.13249 14.4227 4.46249C14.2352 4.21499 14.2877 3.86249 14.5352 3.67499C14.7827 3.48749 15.1352 3.53999 15.3227 3.78749C17.6252 6.85499 17.6252 11.145 15.3227 14.2125C15.2177 14.3625 15.0452 14.4375 14.8727 14.4375Z" fill="#9D97FF"/>
<g id="Vector_4" opacity="0">
</g>
</g>
</svg>



