<svg preserveAspectRatio="none" width="100%" height="100%" overflow="visible" style="display: block;" viewBox="0 0 72 72" fill="none" xmlns="http://www.w3.org/2000/svg">
<g id="Group 29">
<g id="Ellipse">
<circle cx="36" cy="36" r="36" fill="#FF6B6B" fill-opacity="0.12"/>
<circle cx="36" cy="36" r="35" stroke="#FF6B6B" stroke-opacity="0.3" stroke-width="2"/>
</g>
<g id="Group 4" opacity="0.1">
<path id="Ellipse 5" d="M36 2C40.4649 2 44.8862 2.87944 49.0112 4.5881C53.1363 6.29676 56.8844 8.80118 60.0416 11.9584C63.1988 15.1156 65.7032 18.8637 67.4119 22.9888C69.1206 27.1138 70 31.5351 70 36C70 40.4649 69.1206 44.8862 67.4119 49.0112C65.7032 53.1363 63.1988 56.8844 60.0416 60.0416C56.8844 63.1988 53.1363 65.7032 49.0112 67.4119C44.8862 69.1206 40.4649 70 36 70L36 36V2Z" fill="#CF1504"/>
<path id="Ellipse 6" d="M36 2C31.5351 2 27.1138 2.87944 22.9888 4.5881C18.8637 6.29676 15.1156 8.80118 11.9584 11.9584C8.80118 15.1156 6.29676 18.8637 4.5881 22.9888C2.87944 27.1138 2 31.5351 2 36C2 40.4649 2.87944 44.8862 4.5881 49.0112C6.29676 53.1363 8.80118 56.8844 11.9584 60.0416C15.1156 63.1988 18.8637 65.7032 22.9888 67.4119C27.1138 69.1206 31.5351 70 36 70L36 36V2Z" fill="#3B9B19"/>
</g>
<g id="Group 5">
<path id="Ellipse 5_2" d="M36 18C33.6362 18 31.2956 18.4656 29.1117 19.3702C26.9278 20.2748 24.9435 21.6006 23.2721 23.2721C21.6006 24.9435 20.2748 26.9278 19.3702 29.1117C18.4656 31.2956 18 33.6362 18 36C18 38.3638 18.4656 40.7044 19.3702 42.8883C20.2748 45.0722 21.6006 47.0565 23.2721 48.7279C24.9435 50.3994 26.9278 51.7252 29.1117 52.6298C31.2956 53.5344 33.6362 54 36 54L36 36V18Z" fill="#CF1504"/>
<path id="Ellipse 6_2" d="M36 18C38.3638 18 40.7044 18.4656 42.8883 19.3702C45.0722 20.2748 47.0565 21.6006 48.7279 23.2721C50.3994 24.9435 51.7252 26.9278 52.6298 29.1117C53.5344 31.2956 54 33.6362 54 36C54 38.3638 53.5344 40.7044 52.6298 42.8883C51.7252 45.0722 50.3994 47.0565 48.7279 48.7279C47.0565 50.3994 45.0722 51.7252 42.8883 52.6298C40.7044 53.5344 38.3638 54 36 54L36 36V18Z" fill="#3B9B19"/>
</g>
</g>
</svg>

